<svg width="42" height="42" viewBox="0 0 260 260" fill="none" xmlns="http://www.w3.org/2000/svg" role="img" aria-label="ClueGrid logo mark">
  <defs>
    <linearGradient id="g" x1="0" y1="0" x2="1" y2="1">
      <stop offset="0" stop-color="#B2EF9B"/>
      <stop offset="0.45" stop-color="#FFC43D"/>
      <stop offset="1" stop-color="#EF959C"/>
    </linearGradient>
    <filter id="shadow" x="-20%" y="-20%" width="140%" height="140%">
      <feDropShadow dx="0" dy="4" stdDeviation="7" flood-color="#000000" flood-opacity="0.35"/>
    </filter>
  </defs>

  <g filter="url(#shadow)">
    <g transform="translate(16 16)">
      <rect x="0" y="0" width="228" height="228" rx="30" fill="#081619" stroke="url(#g)" stroke-width="6"/>
      <path d="M62 44h104a18 18 0 0 1 18 18v104a18 18 0 0 1-18 18H62a18 18 0 0 1-18-18V62a18 18 0 0 1 18-18Z" fill="#0C2126" stroke="#1B9AAA" stroke-opacity="0.55" stroke-width="4"/>

      <g opacity="0.95">
        <rect x="62" y="62" width="104" height="104" rx="10" fill="#081619" stroke="#FFC43D" stroke-width="3"/>
        <path d="M62 96h104M62 130h104M96 62v104M130 62v104" stroke="#B2EF9B" stroke-opacity="0.45" stroke-width="2"/>
      </g>

      <circle cx="112" cy="112" r="28" fill="none" stroke="#FFC43D" stroke-width="10"/>
      <path d="M132 132l28 28" stroke="#FFC43D" stroke-width="12" stroke-linecap="round"/>
      <circle cx="112" cy="112" r="6" fill="#EF959C"/>

      <path d="M66 172c14-14 31-22 46-22s32 8 46 22" stroke="#B2EF9B" stroke-width="6" stroke-linecap="round" stroke-opacity="0.85"/>
      <path d="M82 166c7-6 17-9 28-9s21 3 28 9" stroke="#EF959C" stroke-width="4" stroke-linecap="round" stroke-opacity="0.65"/>
    </g>
  </g>

</svg>
